<svg width="18" height="17" viewBox="0 0 18 17" fill="none" xmlns="http://www.w3.org/2000/svg">
<path d="M1.42291 17C1.42291 17 0 17 0 15.5833C0 14.1667 1.42291 9.91667 8.53746 9.91667C15.652 9.91667 17.0749 14.1667 17.0749 15.5833C17.0749 17 15.652 17 15.652 17H1.42291ZM8.53746 8.5C9.6696 8.5 10.7554 8.05223 11.5559 7.2552C12.3565 6.45817 12.8062 5.37717 12.8062 4.25C12.8062 3.12283 12.3565 2.04183 11.5559 1.2448C10.7554 0.447767 9.6696 0 8.53746 0C7.40533 0 6.31956 0.447767 5.51901 1.2448C4.71847 2.04183 4.26873 3.12283 4.26873 4.25C4.26873 5.37717 4.71847 6.45817 5.51901 7.2552C6.31956 8.05223 7.40533 8.5 8.53746 8.5Z" fill="white"/>
</svg>
