<svg width="14" height="17" viewBox="0 0 14 17" fill="none" xmlns="http://www.w3.org/2000/svg">
<path d="M2.12121 0C1.55863 0 1.01909 0.223883 0.621289 0.622398C0.223484 1.02091 0 1.56141 0 2.125V14.875C0 15.4386 0.223484 15.9791 0.621289 16.3776C1.01909 16.7761 1.55863 17 2.12121 17H13.3636C13.5324 17 13.6943 16.9328 13.8136 16.8133C13.933 16.6937 14 16.5316 14 16.3625C14 16.1934 13.933 16.0313 13.8136 15.9117C13.6943 15.7922 13.5324 15.725 13.3636 15.725H2.12121C1.89618 15.725 1.68036 15.6354 1.52124 15.476C1.36212 15.3166 1.27273 15.1004 1.27273 14.875H13.3636C13.5324 14.875 13.6943 14.8078 13.8136 14.6883C13.933 14.5687 14 14.4066 14 14.2375V2.125C14 1.84594 13.9451 1.56961 13.8385 1.3118C13.7319 1.05398 13.5757 0.819723 13.3787 0.622398C13.1817 0.425074 12.9479 0.268547 12.6905 0.161756C12.4332 0.0549648 12.1573 0 11.8788 0H2.12121ZM9.75758 8.7125V9.1375C9.75758 9.9875 8.58412 10.625 7 10.625C5.41588 10.625 4.24242 9.9875 4.24242 9.1375V8.7125C4.24242 8.54342 4.30947 8.38127 4.42881 8.26172C4.54815 8.14217 4.71001 8.075 4.87879 8.075H9.12121C9.28999 8.075 9.45185 8.14217 9.57119 8.26172C9.69053 8.38127 9.75758 8.54342 9.75758 8.7125ZM8.48485 5.73325C8.48485 6.12776 8.32841 6.50611 8.04995 6.78507C7.77148 7.06403 7.39381 7.22075 7 7.22075C6.60619 7.22075 6.22852 7.06403 5.95005 6.78507C5.67159 6.50611 5.51515 6.12776 5.51515 5.73325C5.51515 4.913 6.17952 4.25 7 4.25C7.82049 4.25 8.48485 4.91215 8.48485 5.73325Z" fill="white"/>
</svg>
