<svg width="46" height="46" viewBox="0 0 46 46" fill="none" xmlns="http://www.w3.org/2000/svg">
<path fill-rule="evenodd" clip-rule="evenodd" d="M45.6742 22.8371C45.6742 35.4497 35.4497 45.6742 22.8371 45.6742C10.2245 45.6742 0 35.4497 0 22.8371C0 10.2245 10.2245 0 22.8371 0C35.4497 0 45.6742 10.2245 45.6742 22.8371ZM34.8808 13.9789C34.7773 13.9683 34.673 13.9683 34.5696 13.9789H13.3184C13.1822 13.981 13.0469 14.0013 12.9161 14.0394L23.8833 24.913L34.8808 13.9789ZM24.9534 25.986L36.004 15.0292C36.0583 15.1772 36.089 15.3327 36.0951 15.4902V30.603C36.0951 31.0038 35.9351 31.3882 35.6505 31.6716C35.3658 31.955 34.9797 32.1143 34.5771 32.1143H13.326C12.9234 32.1143 12.5373 31.955 12.2526 31.6716C11.968 31.3882 11.808 31.0038 11.808 30.603V15.4902C11.8096 15.3625 11.8275 15.2356 11.8612 15.1124L22.8131 25.986C23.0975 26.2675 23.4822 26.4255 23.8832 26.4255C24.2843 26.4255 24.669 26.2675 24.9534 25.986ZM13.3108 30.603H14.3658L19.8986 25.1397L18.8285 24.0742L13.3108 29.5224V30.603ZM33.4994 30.603H34.5619L34.5544 29.5224L29.0366 24.0742L27.9665 25.1397L33.4994 30.603Z" fill="white"/>
</svg>
