<svg width="47" height="45" viewBox="0 0 47 45" fill="none" xmlns="http://www.w3.org/2000/svg">
<path fill-rule="evenodd" clip-rule="evenodd" d="M23.4099 0.674316C10.6464 0.674316 0.308533 10.7683 0.308533 23.2308C0.308533 33.212 6.9213 41.6425 16.1041 44.6312C17.2592 44.8286 17.6923 44.1519 17.6923 43.5598C17.6923 43.0241 17.6634 41.2478 17.6634 39.3587C11.8592 40.4019 10.3576 37.9771 9.89561 36.7083C9.63571 36.0598 8.50952 34.0579 7.52771 33.5222C6.71917 33.0992 5.5641 32.056 7.49884 32.0278C9.31807 31.9996 10.6175 33.6631 11.0507 34.3398C13.1298 37.7515 16.4506 36.7929 17.779 36.2007C17.9811 34.7346 18.5875 33.7477 19.2517 33.1838C14.1116 32.6199 8.74054 30.6744 8.74054 22.0466C8.74054 19.5935 9.63572 17.5635 11.1084 15.9845C10.8774 15.4206 10.0689 13.1086 11.3394 10.0071C11.3394 10.0071 13.2742 9.41495 17.6923 12.3191C19.5404 11.8116 21.504 11.5578 23.4677 11.5578C25.4313 11.5578 27.3949 11.8116 29.243 12.3191C33.6611 9.38675 35.5959 10.0071 35.5959 10.0071C36.8665 13.1086 36.0579 15.4206 35.8269 15.9845C37.2996 17.5635 38.1948 19.5654 38.1948 22.0466C38.1948 30.7026 32.7948 32.6199 27.6548 33.1838C28.4922 33.8887 29.2141 35.2421 29.2141 37.3568C29.2141 40.3737 29.1853 42.7985 29.1853 43.5598C29.1853 44.1519 29.6184 44.8568 30.7735 44.6312C35.3594 43.1194 39.3444 40.2415 42.1676 36.4026C44.9907 32.5636 46.5099 27.9569 46.5113 23.2308C46.5113 10.7683 36.1734 0.674316 23.4099 0.674316Z" fill="#F8F8F8"/>
</svg>
