<svg width="17" height="17" viewBox="0 0 17 17" fill="none" xmlns="http://www.w3.org/2000/svg">
<path d="M6.4895 16.3929V12.1371C6.4895 11.8396 6.79855 11.5361 7.1076 11.5361H9.57999C9.88904 11.5361 10.1981 11.8396 10.1981 12.1432V16.3929C10.1981 16.5539 10.2632 16.7083 10.3791 16.8222C10.495 16.936 10.6523 17 10.8162 17H15.761C15.9249 17 16.0821 16.936 16.198 16.8222C16.3139 16.7083 16.3791 16.5539 16.3791 16.3929V7.89344C16.3792 7.81366 16.3633 7.73463 16.3324 7.66088C16.3014 7.58713 16.2559 7.52009 16.1986 7.46361L14.5248 5.82079V1.8224C14.5248 1.66138 14.4596 1.50696 14.3437 1.39311C14.2278 1.27926 14.0706 1.21529 13.9067 1.21529H12.6705C12.5065 1.21529 12.3493 1.27926 12.2334 1.39311C12.1175 1.50696 12.0524 1.66138 12.0524 1.8224V3.39237L8.78141 0.17836C8.72399 0.121822 8.65578 0.0769659 8.58069 0.04636C8.5056 0.0157541 8.4251 0 8.3438 0C8.26249 0 8.18199 0.0157541 8.1069 0.04636C8.03181 0.0769659 7.9636 0.121822 7.90618 0.17836L0.489018 7.46361C0.431656 7.52009 0.386191 7.58713 0.355223 7.66088C0.324254 7.73463 0.308389 7.81366 0.308534 7.89344V16.3929C0.308534 16.5539 0.373654 16.7083 0.48957 16.8222C0.605486 16.936 0.762701 17 0.926631 17H5.87141C6.03534 17 6.19255 16.936 6.30847 16.8222C6.42438 16.7083 6.4895 16.5539 6.4895 16.3929Z" fill="white"/>
</svg>
