<svg width="46" height="46" viewBox="0 0 46 46" fill="none" xmlns="http://www.w3.org/2000/svg">
<path fill-rule="evenodd" clip-rule="evenodd" d="M22.8371 45.6742C35.4497 45.6742 45.6742 35.4497 45.6742 22.8371C45.6742 10.2245 35.4497 0 22.8371 0C10.2245 0 0 10.2245 0 22.8371C0 35.4497 10.2245 45.6742 22.8371 45.6742ZM16.6793 34.9273V18.6039H11.2295V34.9273H16.6793ZM16.1921 15.5731C16.7591 15.035 17.0371 14.3651 17.0261 13.5635C17.0151 12.7509 16.7343 12.0783 16.1839 11.5457C15.6334 11.0131 14.9012 10.7469 13.9874 10.7469C13.0736 10.7469 12.3332 11.0131 11.7662 11.5457C11.1992 12.0783 10.9157 12.7509 10.9157 13.5635C10.9157 14.3651 11.1909 15.035 11.7414 15.5731C12.2919 16.1111 13.0186 16.3802 13.9214 16.3802H13.9544C14.8792 16.3802 15.6251 16.1111 16.1921 15.5731ZM36.2822 34.9273V25.5714C36.2822 23.1665 35.7096 21.3409 34.5646 20.0946C33.4196 18.8482 31.9058 18.225 30.0231 18.225C29.3295 18.225 28.6992 18.3101 28.1322 18.4803C27.5652 18.6505 27.0863 18.8894 26.6954 19.1968C26.3046 19.5043 25.9935 19.7898 25.7623 20.0534C25.5427 20.3038 25.328 20.5938 25.1183 20.9235V18.6039H19.685L19.7015 19.3945C19.7125 19.9216 19.718 21.5468 19.718 24.2701C19.718 26.9935 19.707 30.5459 19.685 34.9273H25.1183V25.8185C25.1183 25.2584 25.1788 24.8137 25.2999 24.4843C25.5311 23.9242 25.8807 23.4548 26.3486 23.0759C26.8165 22.6971 27.3973 22.5077 28.0909 22.5077C29.0377 22.5077 29.7341 22.8344 30.18 23.4877C30.6259 24.1411 30.8488 25.0443 30.8488 26.1973V34.9273H36.2822Z" fill="white"/>
</svg>
