<svg width="13" height="17" viewBox="0 0 13 17" fill="none" xmlns="http://www.w3.org/2000/svg">
<path d="M7.32514 0H2.00881C1.47604 0 0.965094 0.223883 0.588368 0.622398C0.211642 1.02091 0 1.56141 0 2.125V14.875C0 15.4386 0.211642 15.9791 0.588368 16.3776C0.965094 16.7761 1.47604 17 2.00881 17H10.0441C10.5768 17 11.0878 16.7761 11.4645 16.3776C11.8412 15.9791 12.0529 15.4386 12.0529 14.875V5.00119C12.0528 4.71942 11.947 4.44921 11.7586 4.25L8.03526 0.311313C7.84694 0.112041 7.59151 6.01772e-05 7.32514 0V0ZM7.53305 3.71875V1.59375L10.5463 4.78125H8.53746C8.27108 4.78125 8.0156 4.66931 7.82724 4.47005C7.63888 4.27079 7.53305 4.00054 7.53305 3.71875ZM4.66648 8.12387C4.71317 8.07448 4.7686 8.0353 4.82961 8.00857C4.89062 7.98184 4.956 7.96808 5.02204 7.96808C5.08807 7.96808 5.15346 7.98184 5.21446 8.00857C5.27547 8.0353 5.3309 8.07448 5.3776 8.12387C5.42429 8.17327 5.46133 8.23191 5.4866 8.29644C5.51187 8.36098 5.52487 8.43015 5.52487 8.5C5.52487 8.56985 5.51187 8.63902 5.4866 8.70356C5.46133 8.76809 5.42429 8.82673 5.3776 8.87613L3.72334 10.625L5.3776 12.3739C5.4719 12.4736 5.52487 12.6089 5.52487 12.75C5.52487 12.8911 5.4719 13.0264 5.3776 13.1261C5.2833 13.2259 5.1554 13.2819 5.02204 13.2819C4.88868 13.2819 4.76078 13.2259 4.66648 13.1261L2.65766 11.0011C2.61089 10.9518 2.57379 10.8932 2.54847 10.8286C2.52315 10.7641 2.51012 10.6949 2.51012 10.625C2.51012 10.5551 2.52315 10.4859 2.54847 10.4214C2.57379 10.3568 2.61089 10.2982 2.65766 10.2489L4.66648 8.12387ZM7.38641 8.12387L9.39523 10.2489C9.44199 10.2982 9.4791 10.3568 9.50442 10.4214C9.52973 10.4859 9.54277 10.5551 9.54277 10.625C9.54277 10.6949 9.52973 10.7641 9.50442 10.8286C9.4791 10.8932 9.44199 10.9518 9.39523 11.0011L7.38641 13.1261C7.29211 13.2259 7.16421 13.2819 7.03085 13.2819C6.89749 13.2819 6.76959 13.2259 6.67529 13.1261C6.58099 13.0264 6.52801 12.8911 6.52801 12.75C6.52801 12.6089 6.58099 12.4736 6.67529 12.3739L8.32955 10.625L6.67529 8.87613C6.6286 8.82673 6.59156 8.76809 6.56629 8.70356C6.54102 8.63902 6.52801 8.56985 6.52801 8.5C6.52801 8.43015 6.54102 8.36098 6.56629 8.29644C6.59156 8.23191 6.6286 8.17327 6.67529 8.12387C6.72198 8.07448 6.77742 8.0353 6.83842 8.00857C6.89943 7.98184 6.96482 7.96808 7.03085 7.96808C7.09688 7.96808 7.16227 7.98184 7.22328 8.00857C7.28429 8.0353 7.33972 8.07448 7.38641 8.12387Z" fill="white"/>
</svg>
