<svg width="15" height="17" viewBox="0 0 15 17" fill="none" xmlns="http://www.w3.org/2000/svg">
<path d="M2.63657 0H11.4251C12.1244 0 12.795 0.26866 13.2895 0.746878C13.7839 1.2251 14.0617 1.8737 14.0617 2.55V14.45C14.0617 15.1263 13.7839 15.7749 13.2895 16.2531C12.795 16.7313 12.1244 17 11.4251 17H2.63657C1.93731 17 1.26669 16.7313 0.772233 16.2531C0.277781 15.7749 0 15.1263 0 14.45L0 2.55C0 1.8737 0.277781 1.2251 0.772233 0.746878C1.26669 0.26866 1.93731 0 2.63657 0V0ZM9.66742 1.7C9.43434 1.7 9.2108 1.78955 9.04598 1.94896C8.88116 2.10837 8.78857 2.32457 8.78857 2.55C8.78857 2.77543 8.88116 2.99164 9.04598 3.15104C9.2108 3.31045 9.43434 3.4 9.66742 3.4H11.4251C11.6582 3.4 11.8818 3.31045 12.0466 3.15104C12.2114 2.99164 12.304 2.77543 12.304 2.55C12.304 2.32457 12.2114 2.10837 12.0466 1.94896C11.8818 1.78955 11.6582 1.7 11.4251 1.7H9.66742ZM2.63657 7.65C2.40348 7.65 2.17994 7.73955 2.01512 7.89896C1.85031 8.05837 1.75771 8.27457 1.75771 8.5C1.75771 8.72543 1.85031 8.94164 2.01512 9.10104C2.17994 9.26045 2.40348 9.35 2.63657 9.35H11.4251C11.6582 9.35 11.8818 9.26045 12.0466 9.10104C12.2114 8.94164 12.304 8.72543 12.304 8.5C12.304 8.27457 12.2114 8.05837 12.0466 7.89896C11.8818 7.73955 11.6582 7.65 11.4251 7.65H2.63657ZM2.63657 10.2C2.40348 10.2 2.17994 10.2896 2.01512 10.449C1.85031 10.6084 1.75771 10.8246 1.75771 11.05C1.75771 11.2754 1.85031 11.4916 2.01512 11.651C2.17994 11.8104 2.40348 11.9 2.63657 11.9H11.4251C11.6582 11.9 11.8818 11.8104 12.0466 11.651C12.2114 11.4916 12.304 11.2754 12.304 11.05C12.304 10.8246 12.2114 10.6084 12.0466 10.449C11.8818 10.2896 11.6582 10.2 11.4251 10.2H2.63657ZM2.63657 12.75C2.40348 12.75 2.17994 12.8396 2.01512 12.999C1.85031 13.1584 1.75771 13.3746 1.75771 13.6C1.75771 13.8254 1.85031 14.0416 2.01512 14.201C2.17994 14.3604 2.40348 14.45 2.63657 14.45H7.03085C7.26394 14.45 7.48748 14.3604 7.6523 14.201C7.81712 14.0416 7.90971 13.8254 7.90971 13.6C7.90971 13.3746 7.81712 13.1584 7.6523 12.999C7.48748 12.8396 7.26394 12.75 7.03085 12.75H2.63657ZM9.66742 4.25C9.43434 4.25 9.2108 4.33955 9.04598 4.49896C8.88116 4.65837 8.78857 4.87457 8.78857 5.1C8.78857 5.32543 8.88116 5.54164 9.04598 5.70104C9.2108 5.86045 9.43434 5.95 9.66742 5.95H11.4251C11.6582 5.95 11.8818 5.86045 12.0466 5.70104C12.2114 5.54164 12.304 5.32543 12.304 5.1C12.304 4.87457 12.2114 4.65837 12.0466 4.49896C11.8818 4.33955 11.6582 4.25 11.4251 4.25H9.66742ZM2.63657 1.7C2.40348 1.7 2.17994 1.78955 2.01512 1.94896C1.85031 2.10837 1.75771 2.32457 1.75771 2.55V5.1C1.75771 5.32543 1.85031 5.54164 2.01512 5.70104C2.17994 5.86045 2.40348 5.95 2.63657 5.95H7.03085C7.26394 5.95 7.48748 5.86045 7.6523 5.70104C7.81712 5.54164 7.90971 5.32543 7.90971 5.1V2.55C7.90971 2.32457 7.81712 2.10837 7.6523 1.94896C7.48748 1.78955 7.26394 1.7 7.03085 1.7H2.63657Z" fill="white"/>
</svg>
