<svg width="22" height="26" viewBox="0 0 22 26" fill="none" xmlns="http://www.w3.org/2000/svg">
<path d="M4.38556 19.2808C4.38556 19.9207 4.90782 20.443 5.5504 20.443H6.88204V23.7351C6.88204 24.5691 7.55196 25.25 8.37501 25.25C9.20079 25.25 9.86798 24.5719 9.86798 23.7351V20.4402H12.1922V23.7324C12.1922 24.5664 12.8621 25.2473 13.6852 25.2473C14.5109 25.2473 15.1781 24.5691 15.1781 23.7324V20.4402H16.5098C17.1524 20.4402 17.6746 19.918 17.6746 19.2781V8.47186H4.38556V19.2808V19.2808ZM14.15 2.87187L15.3777 1.09452C15.4488 0.990617 15.4324 0.851164 15.3367 0.782804C15.241 0.717179 15.1043 0.749992 15.0332 0.853898L13.759 2.70233C12.9195 2.37148 11.9844 2.18827 11.0027 2.18827C10.0211 2.18827 9.08595 2.37148 8.24649 2.70233L6.97228 0.856632C6.90118 0.752726 6.76446 0.717179 6.66876 0.785539C6.57306 0.851164 6.55665 0.987882 6.62774 1.09726L7.85548 2.8746C5.90314 3.78241 4.53595 5.50233 4.36095 7.5121H17.65C17.4695 5.4996 16.0996 3.77968 14.15 2.87187V2.87187ZM8.19728 5.6746C8.0518 5.6746 7.90959 5.63146 7.78863 5.55064C7.66767 5.46981 7.57339 5.35494 7.51772 5.22053C7.46205 5.08613 7.44748 4.93824 7.47586 4.79555C7.50424 4.65287 7.5743 4.52181 7.67716 4.41894C7.78003 4.31608 7.9111 4.24602 8.05378 4.21764C8.19646 4.18926 8.34435 4.20382 8.47876 4.2595C8.61316 4.31517 8.72804 4.40944 8.80886 4.53041C8.88968 4.65137 8.93282 4.79358 8.93282 4.93905C8.93232 5.13398 8.85466 5.32077 8.71683 5.4586C8.57899 5.59644 8.3922 5.67409 8.19728 5.6746V5.6746ZM13.8957 5.6746C13.7502 5.6746 13.608 5.63146 13.4871 5.55064C13.3661 5.46981 13.2718 5.35494 13.2162 5.22053C13.1605 5.08613 13.1459 4.93824 13.1743 4.79555C13.2027 4.65287 13.2727 4.52181 13.3756 4.41894C13.4785 4.31608 13.6095 4.24602 13.7522 4.21764C13.8949 4.18926 14.0428 4.20382 14.1772 4.2595C14.3116 4.31517 14.4265 4.40944 14.5073 4.53041C14.5881 4.65137 14.6313 4.79358 14.6313 4.93905C14.6308 5.13398 14.5531 5.32077 14.4153 5.4586C14.2774 5.59644 14.0906 5.67409 13.8957 5.6746ZM20.0043 8.42811C19.1785 8.42811 18.5113 9.10624 18.5113 9.94296V15.8601C18.5113 16.6941 19.1813 17.375 20.0043 17.375C20.8301 17.375 21.4973 16.6969 21.4973 15.8601V9.94022C21.5 9.10351 20.8328 8.42811 20.0043 8.42811ZM1.99571 8.42811C1.16993 8.42811 0.502747 9.10624 0.502747 9.94296V15.8601C0.502747 16.6941 1.17267 17.375 1.99571 17.375C2.8215 17.375 3.48868 16.6969 3.48868 15.8601V9.94022C3.48868 9.10351 2.81876 8.42811 1.99571 8.42811Z" fill="white"/>
</svg>
