<svg width="30" height="14" viewBox="0 0 30 14" fill="none" xmlns="http://www.w3.org/2000/svg">
<path d="M29.775 7.00015C29.7028 3.06612 26.4114 -0.0664844 22.4262 0.00107246C22.0596 0.00107246 21.6753 0.0306863 21.2984 0.064002C18.1494 0.522093 16.0495 2.75425 14.887 4.46908C13.7011 2.75425 11.5871 0.522093 8.46255 0.064002C8.08902 0.0264053 7.71396 0.00540767 7.33852 0.00107246C3.35521 -0.05723 0.0740602 3.07074 0 7.00015C0.0740602 10.9286 3.35521 14.0566 7.33852 13.9992C7.71445 13.9992 8.08569 13.9696 8.48599 13.9215C11.6359 13.4782 13.7349 11.2461 14.9123 9.53122C16.0982 11.2461 18.1982 13.4782 21.3368 13.9363C21.7231 13.9696 22.0896 13.9992 22.474 13.9992C26.4385 14.0372 29.7009 10.9147 29.7741 7.00015H29.775ZM8.10069 11.445C7.85226 11.4931 7.56445 11.4931 7.31602 11.4931C6.07192 11.5203 4.86744 11.0606 3.96541 10.2143C3.06337 9.36809 2.53701 8.20401 2.50117 6.97609C2.53992 5.74775 3.06838 4.58418 3.97163 3.73846C4.87487 2.89274 6.07984 2.43326 7.32446 2.45996C7.57476 2.45996 7.85226 2.48494 8.111 2.50808C11.0743 2.94211 12.8874 5.80541 13.5024 6.97609C12.8771 8.14861 11.0659 11.0489 8.111 11.445H8.10069ZM16.2501 7.00015C16.8604 5.85261 18.6763 2.96525 21.6359 2.53214C21.8899 2.48402 22.1618 2.48402 22.4121 2.48402C23.0305 2.46553 23.6466 2.56783 24.2249 2.78503C24.8031 3.00224 25.3322 3.33007 25.7818 3.7497C26.2314 4.16933 26.5925 4.6725 26.8446 5.23031C27.0966 5.78811 27.2345 6.38957 27.2504 7.00015C27.2097 8.22817 26.6804 9.39088 25.7772 10.2363C24.874 11.0816 23.6696 11.5415 22.4252 11.5163C22.1659 11.5128 21.9068 11.4967 21.649 11.4682C18.7007 11.035 16.8745 8.14769 16.2642 7.00015H16.2501ZM5.26484 7.72847H9.68876V6.29682H5.27515V7.72847H5.26484ZM22.9249 7.72847H24.4136V6.29682H22.9099V4.8263H21.499V6.3107H20V7.72847H21.499V9.18418H22.9399V7.74327L22.9249 7.72847ZM30 0.903372C30 1.27355 29.7263 1.5336 29.3363 1.5336C29.2516 1.53694 29.1671 1.52351 29.0878 1.49411C29.0085 1.4647 28.9359 1.41991 28.8744 1.36238C28.8129 1.30485 28.7637 1.23574 28.7296 1.15914C28.6956 1.08253 28.6775 0.999968 28.6763 0.916329C28.6763 0.56929 28.9753 0.275927 29.3363 0.275927C29.7263 0.275927 30 0.546155 30 0.902448V0.903372ZM28.8628 0.903372C28.8628 1.1773 29.0625 1.39941 29.3606 1.39941C29.6391 1.39941 29.8397 1.1773 29.8397 0.903372C29.8397 0.633145 29.64 0.411041 29.3606 0.411041C29.0635 0.387905 28.8628 0.608158 28.8628 0.903372ZM29.2388 1.22542H29.1113V0.585022L29.3597 0.570216C29.4722 0.570216 29.536 0.585023 29.5894 0.608159C29.6381 0.633146 29.6616 0.681268 29.6616 0.744197C29.6616 0.815456 29.6128 0.869132 29.5256 0.878386C29.5894 0.903373 29.6128 0.956123 29.6381 1.04219L29.6719 1.20136H29.5256C29.5022 1.17638 29.5022 1.11345 29.4722 1.04219C29.4488 0.979259 29.4235 0.956122 29.3363 0.956122H29.2772L29.2472 1.22542H29.2388ZM29.2622 0.85525H29.3363C29.4235 0.85525 29.4628 0.845071 29.4628 0.767334C29.4628 0.704404 29.4244 0.681268 29.3363 0.681268H29.2472V0.85525H29.2622Z" fill="white"/>
</svg>
