<svg width="27" height="22" viewBox="0 0 27 22" fill="none" xmlns="http://www.w3.org/2000/svg">
<path fill-rule="evenodd" clip-rule="evenodd" d="M5.60813 0.25C4.06688 0.25 2.92725 1.59888 2.979 3.06025C3.02738 4.4665 2.96437 6.28563 2.5065 7.7695C2.04525 9.25675 1.269 10.1995 0 10.321V11.6879C1.269 11.8082 2.04638 12.751 2.50537 14.2394C2.96437 15.7233 3.02738 17.5424 2.97788 18.9475C2.92725 20.41 4.06688 21.7589 5.60813 21.7589H21.3941C22.9354 21.7589 24.075 20.41 24.0233 18.9475C23.9749 17.5424 24.0379 15.7233 24.4958 14.2394C24.9559 12.751 25.731 11.8094 27 11.6879V10.321C25.731 10.1995 24.9559 9.25675 24.4958 7.7695C24.0379 6.2845 23.9749 4.46538 24.0233 3.06025C24.075 1.59775 22.9343 0.25 21.3941 0.25H5.60813ZM18.3038 13.4901C18.3038 15.5039 16.8019 16.7245 14.31 16.7245H10.0676C9.94619 16.7245 9.82973 16.6763 9.74386 16.5904C9.65799 16.5045 9.60975 16.3881 9.60975 16.2666V5.74113C9.61005 5.61988 9.65842 5.50371 9.74426 5.41809C9.83009 5.33246 9.94638 5.28437 10.0676 5.28437H14.2864C16.3643 5.28437 17.7289 6.40938 17.7289 8.1385C17.7289 9.35125 16.8109 10.4369 15.642 10.6281V10.6911C17.2339 10.8655 18.3049 11.968 18.3049 13.4901H18.3038ZM13.8488 6.7345H11.43V10.1523H13.4674C15.0424 10.1523 15.9109 9.51775 15.9109 8.38375C15.9109 7.32175 15.1639 6.7345 13.8488 6.7345ZM11.43 11.5079V15.2733H13.9388C15.5779 15.2733 16.4475 14.6151 16.4475 13.3788C16.4475 12.1413 15.5542 11.5079 13.833 11.5079H11.43V11.5079Z" fill="white"/>
</svg>
