<svg width="22" height="24" viewBox="0 0 22 24" fill="none" xmlns="http://www.w3.org/2000/svg">
<g clip-path="url(#clip0_70_19)">
<path d="M21.0465 5.31019L11.952 0.219938C11.4282 -0.0733125 10.5708 -0.0733125 10.0469 0.219938L0.952576 5.31019C0.428637 5.60344 0 6.32325 0 6.90975V17.0903C0.0407604 17.7733 0.400642 18.339 0.952528 18.6898L10.047 23.78C10.5708 24.0733 11.4282 24.0733 11.9521 23.78L21.0465 18.6898C21.6387 18.308 21.9758 17.7332 21.9991 17.0903V6.90975C21.9778 6.29264 21.5967 5.67023 21.0466 5.31019H21.0465ZM3.66651 12C3.62342 5.05833 13.214 1.99317 17.3498 8.44327L14.1763 10.2236C12.2605 7.15172 7.50374 8.25014 7.33301 12C7.38426 15.4561 12.0596 17.0615 14.1765 13.7762L17.3501 15.5565C13.7052 21.6907 3.85029 19.4837 3.66655 12H3.66651ZM18.3325 12.3949H17.5177V13.1849H16.7031V12.3949H15.8883V11.6051H16.7031V10.8152H17.5178V11.6051H18.3326V12.3949H18.3325ZM21.388 12.3949H20.5731V13.1849H19.7584V12.3949H18.9437V11.6051H19.7585V10.8152H20.5732V11.6051H21.388V12.3949H21.388Z" fill="white"/>
</g>
<defs>
<clipPath id="clip0_70_19">
<rect width="22" height="24" fill="white"/>
</clipPath>
</defs>
</svg>
