<svg width="22" height="24" viewBox="0 0 22 24" fill="none" xmlns="http://www.w3.org/2000/svg">
<path fill-rule="evenodd" clip-rule="evenodd" d="M21.1553 5.98979C20.9834 5.6888 20.7259 5.43659 20.3805 5.23717C19.1584 4.53462 17.9357 3.83299 16.7131 3.13135L16.7121 3.13075C15.0825 2.19556 13.4529 1.26037 11.8245 0.322996C11.0561 -0.119319 10.311 -0.10311 9.54822 0.345555C8.865 0.747224 6.53388 2.08331 4.4171 3.29654C3.0176 4.09866 1.7118 4.84709 1.03789 5.23625C0.340571 5.6388 0.00125703 6.25473 0.00108942 7.05522C0.000544712 8.70346 0.000544712 10.3517 0.000544712 11.9999C0.000544712 13.6482 0.000544712 15.2964 0 16.9446C0 17.3393 0.0830477 17.6891 0.2504 17.9904C0.422445 18.3005 0.683572 18.5597 1.03696 18.7636C1.70637 19.1502 2.9993 19.8911 4.38825 20.6871L4.39186 20.6891L4.39468 20.6908L4.39555 20.6913L4.39648 20.6918L4.39748 20.6924L4.40026 20.694C6.52155 21.9096 8.86307 23.2515 9.54788 23.6543C10.311 24.1032 11.0561 24.1193 11.8248 23.6769C13.4772 22.7257 15.1309 21.7767 16.7846 20.8277L16.7862 20.8268L16.7892 20.8251L16.7913 20.8239C17.9881 20.1371 19.185 19.4503 20.3814 18.7626C20.7348 18.5588 20.9959 18.2994 21.1679 17.9896C21.335 17.6882 21.4183 17.3385 21.4183 16.9437V16.9436L21.4182 15.8623C21.4182 13.854 21.418 9.5284 21.4172 7.05598L21.4172 7.05587C21.4172 7.03068 21.4168 7.00568 21.4161 6.98086C21.4138 6.89523 21.4074 6.81179 21.397 6.73057C21.3621 6.45815 21.2818 6.21075 21.1554 5.98977L21.1553 5.98979ZM16.9189 9.71627V10.842H18.0481V9.71627H18.6127V10.842H19.7418V11.4049H18.6127V12.5306H19.7418V13.0935H18.6127V14.2192H18.0481V13.0935H16.9189V14.2192H16.3544V13.0935H15.2253V12.5306H16.3544V11.4049H15.2253V10.842H16.3544V9.71627H16.9189ZM18.0481 11.4048H16.9189V12.5306H18.0481V11.4049V11.4048ZM17.6587 8.02755C16.2814 5.65723 13.7101 4.06259 10.7649 4.06259L10.7649 4.06251C6.36794 4.06251 2.80368 7.61623 2.80368 11.9998C2.80368 13.4379 3.1874 14.7865 3.85807 15.9498C5.23192 18.3326 7.8105 19.9371 10.7649 19.9371L10.8536 19.9366C13.7645 19.905 16.3006 18.3153 17.6628 15.965L14.2029 13.9667C14.2084 13.9571 14.2139 13.9475 14.2193 13.9378L14.2028 13.9666L14.2029 13.9667C13.5188 15.1528 12.2358 15.9522 10.7649 15.9522C9.29137 15.9522 8.00677 15.15 7.32345 13.9607C6.98017 13.3639 6.79989 12.6878 6.80061 11.9998C6.80061 9.81703 8.57553 8.04744 10.7649 8.04744L10.8101 8.04769C12.2459 8.06373 13.4974 8.8415 14.18 9.99391L17.6452 8.00474L17.6587 8.02755Z" fill="white"/>
</svg>
