<svg width="18" height="24" viewBox="0 0 18 24" fill="none" xmlns="http://www.w3.org/2000/svg">
<path d="M4.50201 0H7.08001V1.078H5.58001V2.156H7.08001V3.234H4.50201V0ZM7.59501 0H10.174V0.938H8.67401V1.125H10.174V3.281H7.59501V2.297H9.09501V2.109H7.59501V0ZM10.69 0H13.267V0.938H11.767V1.125H13.267V3.281H10.69V2.297H12.19V2.109H10.69V0Z" fill="white"/>
<path fill-rule="evenodd" clip-rule="evenodd" d="M8.991 24L2.047 22.072L0 4.71698H18L15.954 22.07L8.991 24ZM4.047 12.573L4.238 14.701H11.615L11.368 17.461L8.994 18.103H8.992L6.622 17.463L6.47 15.766H4.333L4.631 19.108L8.991 20.318L13.358 19.108L13.89 13.144L13.942 12.573L14.326 8.26398H3.664L3.858 10.393H11.994L11.8 12.573H4.047V12.573Z" fill="white"/>
</svg>
