<svg width="16" height="22" viewBox="0 0 16 22" fill="none" xmlns="http://www.w3.org/2000/svg">
<path d="M0.529281 14.3679L2.70718 0.422295C2.72317 0.319018 2.77139 0.223359 2.84501 0.148855C2.91864 0.0743513 3.01394 0.0247756 3.11744 0.00714329C3.22093 -0.010489 3.32738 0.00471499 3.42172 0.050604C3.51605 0.096493 3.5935 0.170743 3.64309 0.262847L5.98564 4.63832L0.529281 14.3679ZM16 17.7515L13.926 4.91763C13.9104 4.82781 13.8703 4.74396 13.8102 4.67517C13.7501 4.60638 13.6723 4.55527 13.585 4.5274C13.4978 4.49953 13.4046 4.49595 13.3155 4.51706C13.2264 4.53816 13.1448 4.58314 13.0796 4.64712L0 17.7515L7.23757 21.8103C7.69171 22.0632 8.2453 22.0632 8.69945 21.8103L16 17.7515ZM10.1182 6.55169L8.44199 3.35944C8.39961 3.2793 8.33605 3.21221 8.25815 3.1654C8.18026 3.1186 8.09099 3.09386 8 3.09386C7.90901 3.09386 7.81974 3.1186 7.74185 3.1654C7.66395 3.21221 7.60038 3.2793 7.55801 3.35944L0.19779 16.4859L10.1182 6.55169Z" fill="white"/>
</svg>
