<svg width="19" height="25" viewBox="0 0 19 25" fill="none" xmlns="http://www.w3.org/2000/svg">
<path d="M10.9727 0.71875C12.2432 3.71753 6.41694 5.5545 5.875 8.05394C5.37928 10.3477 9.32691 13.0383 9.33053 13.0383C8.72787 12.0895 8.28925 11.2893 7.6875 9.80934C6.66797 7.30991 13.8998 5.05516 10.9727 0.71875ZM14.8242 4.88206C14.8242 4.88206 9.73019 5.20378 9.47191 8.53516C9.35409 10.0187 10.8168 10.7972 10.8594 11.8774C10.8956 12.7583 9.98122 13.4905 9.98122 13.4905C9.98122 13.4905 11.6206 13.1942 12.1336 11.8484C12.7 10.3549 11.0297 9.33538 11.1992 8.13822C11.3623 6.99544 14.8242 4.88206 14.8242 4.88206V4.88206ZM16.0703 12.5562C15.5356 12.5317 14.9339 12.7302 14.3992 13.1226C15.4541 12.8897 16.354 13.5513 16.354 14.3125C16.354 16.019 13.918 17.6258 13.918 17.6258C13.918 17.6258 17.6843 17.2043 17.6843 14.3977C17.6843 13.2395 16.9593 12.5988 16.0703 12.5562V12.5562ZM6.07347 12.5852C4.75941 12.6305 2.13672 12.8471 2.13672 13.8594C2.13672 15.2686 8.24666 15.3782 12.6157 14.511C12.6157 14.511 13.8047 13.6827 14.1164 13.3782C11.2527 13.9727 4.71409 14.0651 4.71409 13.5476C4.71409 13.0737 6.80934 12.5852 6.80934 12.5852C6.80934 12.5852 6.51209 12.5707 6.07347 12.5852V12.5852ZM5.67653 15.1907C4.95788 15.1907 3.89213 15.7498 3.89213 16.2945C3.89213 17.3919 9.30244 18.2348 13.2954 16.6343L11.907 15.7852C9.19913 16.6706 4.19663 16.376 5.67653 15.1907ZM6.35622 17.6538C5.37566 17.6538 4.74219 18.2737 4.74219 18.7305C4.74219 20.1352 10.6011 20.2738 12.9265 18.8438L11.4539 17.8804C9.71931 18.6281 5.35481 18.7377 6.35622 17.6538ZM3.07106 18.9289C1.47153 18.8972 0.4375 19.6222 0.4375 20.2303C0.4375 23.4693 16.8352 23.3143 16.8352 20.0038C16.8352 19.4555 16.1872 19.1936 15.957 19.0694C17.2956 22.234 2.56175 21.9866 2.56175 20.117C2.56175 19.6929 3.65197 19.2679 4.657 19.4663L3.80784 18.9842C3.56382 18.9487 3.31765 18.9299 3.07106 18.928V18.9289ZM18.5625 21.1094C16.0703 23.52 9.76281 24.3837 3.41091 22.8938C9.76191 25.5491 18.5308 24.0719 18.5625 21.1094Z" fill="white"/>
</svg>
