<svg width="16" height="20" viewBox="0 0 16 20" fill="none" xmlns="http://www.w3.org/2000/svg">
<path d="M10 0H2C1.46957 0 0.960859 0.210714 0.585786 0.585786C0.210714 0.960859 0 1.46957 0 2V18C0 18.5304 0.210714 19.0391 0.585786 19.4142C0.960859 19.7893 1.46957 20 2 20H14C14.5304 20 15.0391 19.7893 15.4142 19.4142C15.7893 19.0391 16 18.5304 16 18V6L10 0ZM7.255 14.186C7.255 15.531 6.611 16 5.574 16C5.329 16 5.007 15.958 4.797 15.888L4.916 15.027C5.063 15.076 5.252 15.111 5.462 15.111C5.91 15.111 6.191 14.908 6.191 14.173V11.203H7.255V14.186V14.186ZM9.298 15.993C8.759 15.993 8.227 15.852 7.961 15.706L8.178 14.823C8.465 14.97 8.907 15.117 9.362 15.117C9.853 15.117 10.111 14.914 10.111 14.606C10.111 14.311 9.887 14.143 9.32 13.94C8.536 13.668 8.025 13.233 8.025 12.546C8.025 11.74 8.697 11.124 9.811 11.124C10.344 11.124 10.736 11.236 11.016 11.362L10.778 12.223C10.589 12.132 10.253 11.999 9.791 11.999C9.329 11.999 9.104 12.209 9.104 12.454C9.104 12.755 9.371 12.889 9.979 13.119C10.813 13.428 11.205 13.861 11.205 14.527C11.203 15.32 10.595 15.993 9.298 15.993V15.993ZM10 7H9V2L14 7H10Z" fill="white"/>
</svg>
