<svg width="33" height="17" viewBox="0 0 33 17" fill="none" xmlns="http://www.w3.org/2000/svg">
<path d="M9.64116 6.08514H8.34075L7.63228 9.65138H8.78728C9.54937 9.65138 10.1186 9.50998 10.495 9.22618C10.8653 8.94742 11.1179 8.47374 11.2468 7.81624C11.3747 7.185 11.3159 6.73758 11.0808 6.47499C10.8384 6.21744 10.3599 6.08614 9.64116 6.08614V6.08514ZM16.5 0C7.38478 0 0 3.80864 0 8.5C0 13.1914 7.38478 17 16.5 17C25.6152 17 33 13.1914 33 8.5C33 3.80864 25.6152 0 16.5 0ZM12.0151 10.0362C11.6581 10.3722 11.2284 10.6252 10.758 10.7765C10.296 10.9189 9.70612 10.9977 8.99147 10.9977H7.36312L6.91763 13.26H5.02116L6.71344 4.74388H10.3548C11.451 4.74388 12.2513 5.02264 12.7555 5.58519C13.2557 6.14775 13.4114 6.93756 13.2062 7.94754C13.1294 8.3475 12.9884 8.73304 12.7885 9.08983C12.5828 9.44323 12.3215 9.76261 12.0141 10.0362H12.0151ZM17.5529 10.9977L18.2995 7.22742C18.3851 6.8002 18.3532 6.50731 18.2016 6.34773C18.0572 6.19522 17.7396 6.11644 17.2569 6.11644H15.7585L14.7922 10.9977H12.9071L14.5984 2.47647H16.4783L16.0277 4.74388H17.7035C18.7626 4.74388 19.4865 4.92265 19.8846 5.28018C20.2878 5.64377 20.4053 6.22653 20.2507 7.0325L19.4597 10.9987L17.5529 10.9977ZM27.9933 7.94754C27.9188 8.34812 27.7777 8.73402 27.5756 9.08983C27.3719 9.44283 27.1126 9.7622 26.8073 10.0362C26.4471 10.3706 26.0162 10.6234 25.5451 10.7765C25.0831 10.9189 24.4922 10.9977 23.7786 10.9977H22.1564L21.7058 13.26H19.8093L21.5016 4.74388H25.1429C26.2391 4.74388 27.0394 5.02263 27.5437 5.59125C28.0438 6.14876 28.1995 6.93756 27.9943 7.94754H27.9933ZM24.4282 6.08514H23.133L22.4245 9.65138H23.5744C24.3416 9.65138 24.9109 9.50998 25.2821 9.22618C25.6575 8.94742 25.9102 8.47374 26.0401 7.81624C26.168 7.185 26.1092 6.73758 25.8668 6.47499C25.6317 6.21744 25.1481 6.08614 24.4282 6.08614V6.08514Z" fill="white"/>
</svg>
